<svg xmlns="http://www.w3.org/2000/svg" id="Camada_1" data-name="Camada 1" viewBox="0 0 300 135"><defs><style>      .cls-1 {        fill: #1b9452;      }      .cls-1, .cls-2, .cls-3, .cls-4, .cls-5 {        stroke-width: 0px;      }      .cls-2 {        fill: #1a9351;      }      .cls-3 {        fill: #169351;      }      .cls-4 {        fill: #4e4d52;      }      .cls-5 {        fill: #4f4d52;      }    </style></defs><g><path class="cls-4" d="M163.2,100.6c1.2.7,2.2,1.7,2.9,2.9.7,1.2,1,2.6,1,4.1v6.7c0,.3-.1.6-.3.8-.2.2-.5.3-.8.3s-.6,0-.8-.3c-.2-.2-.3-.5-.3-.8v-1.7c-.7.9-1.5,1.6-2.5,2.2-1,.5-2.2.8-3.4.8s-2.8-.3-3.9-1c-1.2-.7-2.1-1.6-2.8-2.9-.7-1.2-1-2.6-1-4s.3-2.8,1-4.1c.7-1.2,1.6-2.2,2.9-2.9,1.2-.7,2.6-1,4-1s2.8.3,4,1ZM162.1,112.7c.9-.5,1.6-1.2,2.1-2.1.5-.9.8-1.9.8-3s-.3-2.1-.8-3c-.5-.9-1.2-1.6-2.1-2.1-.9-.5-1.9-.8-2.9-.8s-2.1.3-3,.8c-.9.5-1.6,1.2-2.1,2.1-.5.9-.8,1.9-.8,3s.3,2.1.8,3c.5.9,1.2,1.6,2.1,2.1.9.5,1.9.8,3,.8s2.1-.3,2.9-.8ZM158.3,96.9l-3.2-3.2c-.2-.2-.3-.4-.3-.8s.1-.6.3-.8c.2-.2.5-.3.8-.3s.6.1.8.3l3.2,3.2c.2.2.3.4.3.7s-.1.6-.3.8c-.2.2-.5.3-.8.3s-.5-.1-.7-.3Z"></path><path class="cls-4" d="M190.7,100.4c1.1.6,1.9,1.4,2.5,2.5.6,1.1.9,2.4.9,3.9v7.4c0,.3-.1.6-.3.8-.2.2-.5.3-.8.3s-.6-.1-.8-.3c-.2-.2-.3-.5-.3-.8v-7.4c0-1.7-.5-3-1.4-3.9s-2.2-1.3-3.7-1.3-1.8.2-2.5.5c-.8.4-1.3.9-1.8,1.5-.4.6-.7,1.3-.7,2.1v8.5c0,.3,0,.6-.3.8-.2.2-.5.3-.8.3s-.6,0-.8-.3c-.2-.2-.3-.5-.3-.8v-13.4c0-.3.1-.6.3-.8s.5-.3.8-.3.6.1.8.3c.2.2.3.5.3.8v1c.6-.7,1.4-1.3,2.3-1.7.9-.4,1.9-.6,2.9-.6s2.6.3,3.6.9Z"></path><path class="cls-4" d="M212.9,100c.2.2.3.5.3.8v13.4c0,.3-.1.6-.3.8s-.5.3-.8.3-.6-.1-.8-.3c-.2-.2-.3-.5-.3-.8v-1c-.6.7-1.4,1.3-2.3,1.7-.9.4-1.9.6-2.9.6s-2.6-.3-3.6-.9c-1.1-.6-1.9-1.4-2.5-2.5-.6-1.1-.9-2.4-.9-3.9v-7.4c0-.3.1-.6.3-.8s.5-.3.8-.3.6.1.8.3c.2.2.3.5.3.8v7.4c0,1.7.5,3,1.4,3.9s2.2,1.3,3.7,1.3,1.8-.2,2.5-.5c.8-.4,1.3-.9,1.8-1.5.4-.6.7-1.3.7-2.1v-8.5c0-.3.1-.6.3-.8s.5-.3.8-.3.6,0,.8.3Z"></path><path class="cls-4" d="M230.5,100.7c0,.1,0,.2,0,.4l-6.3,13.5c-.2.5-.6.7-1.1.7s-.8-.2-1-.7l-6.3-13.5c0-.1,0-.2,0-.4,0-.4.2-.7.6-.9.1,0,.3-.1.5-.1s.4,0,.5.1c.2,0,.3.2.4.4l5.5,11.9,5.4-11.9c0-.2.2-.3.4-.4.2-.1.4-.2.6-.2s.3,0,.5.1c.4.2.6.5.6.9Z"></path><path class="cls-4" d="M243.2,100.6c1.1.7,1.9,1.6,2.5,2.7.6,1.2.9,2.5.9,4s0,.5-.3.7c-.2.2-.4.3-.7.3h-11.5c.2,1.6.8,2.8,1.8,3.8,1.1,1,2.4,1.5,4,1.5s1.4-.1,2.1-.4c.7-.2,1.3-.5,1.7-.9.2-.2.5-.3.8-.3s.4,0,.6.2c.2.2.4.5.4.8s-.1.5-.3.7c-.6.5-1.4,1-2.4,1.3-1,.4-1.9.5-2.8.5-1.5,0-2.9-.3-4.1-1-1.2-.7-2.1-1.6-2.8-2.8-.7-1.2-1-2.6-1-4.1s.3-2.9,1-4.1c.6-1.2,1.5-2.2,2.7-2.8,1.1-.7,2.4-1,3.9-1s2.7.3,3.7,1ZM235.8,102.9c-1,.9-1.5,2.1-1.7,3.5h10.5c-.2-1.5-.7-2.6-1.6-3.5-.9-.9-2.1-1.3-3.5-1.3s-2.6.4-3.6,1.3Z"></path><path class="cls-4" d="M269.7,100.3c.9.5,1.5,1.3,2,2.3.5,1,.7,2.1.7,3.4v8.2c0,.3-.1.6-.3.8s-.5.3-.8.3-.6,0-.8-.3c-.2-.2-.3-.5-.3-.8v-8.2c0-1.4-.3-2.4-1-3.2-.7-.8-1.6-1.2-2.7-1.2s-2.2.4-2.9,1.2c-.7.8-1.1,1.8-1.1,3.1h0v8.3c0,.3,0,.6-.3.8-.2.2-.5.3-.8.3s-.6,0-.8-.3c-.2-.2-.3-.5-.3-.8v-8.2c0-1.4-.3-2.4-1-3.2-.7-.8-1.6-1.2-2.7-1.2s-2.2.4-2.9,1.2c-.8.8-1.1,1.8-1.1,3v8.5c0,.3,0,.6-.3.8-.2.2-.5.3-.8.3s-.6,0-.8-.3c-.2-.2-.3-.5-.3-.8v-13.4c0-.3.1-.6.3-.8s.5-.3.8-.3.6.1.8.3c.2.2.3.5.3.8v.6c.5-.6,1.2-1.1,1.9-1.4.7-.3,1.5-.5,2.4-.5s2,.2,2.8.7c.8.5,1.5,1.1,2,2,.6-.9,1.3-1.5,2.2-2s1.9-.7,3-.7,2.1.3,3,.8Z"></path></g><path class="cls-1" d="M131,50.6c-3.2,0-6.4-.1-9.6-.2-3.4,0-6.7,0-10.1,0-3.9,0-7.6,1.4-8.4,5.1-1.4,6.2-2.1,13.3-3.4,19.5-.8,3.8-1.6,7.6-2.5,11.4-.4,1.7-.4,1.6,1.4,1.7s3.7,0,5.5,0c.6,0,.6-.6.7-1.1.8-3.1,1.6-6.1,2.4-9.2.2-.9.5-1.2,1.4-1.1,1.8,0,3.5,0,5.3,0h7.8c-.7,3.7-1.3,7.2-1.9,10.7-.2.8-.1.8.7.7,2.2,0,4.6,0,6.9,0,.3-.1.4-.7.5-1.3,2-11.1,3.9-22.3,5.9-33.4.4-2.1-.3-2.8-2.4-2.8ZM118.6,71.4h-10.6c.7-4.1,1.4-8.1,2-12.1,0,0-.8,2.9,0-.3,0,0,0,0,0,0,.4-1.8,1.9-3,3.8-3.1.2,0,.6,0,.6,0l9.2-.2c1,0,1.2.2,1.2.8,0,.1,0,.2,0,.2,0,.1,0,.2,0,.4-.6,3.4-1.2,6.8-1.8,10.2,0,0,0,.1,0,.2l-.4,2.4c0,.2,0,.4,0,.5l-.2.9"></path><path class="cls-3" d="M98.5,58.1l-3.9,22.3c-.3,1.6-1,3.1-2,4.5-1.7,2.2-4.1,3.2-7.1,3.2h-25.2l6.6-37.8h25.2c2.4,0,4.2.8,5.3,2.3.8,1.1,1.2,2.5,1.2,4.2s0,.9-.1,1.2ZM91.1,55.5h-17.3l-4.9,27.4h17.3l4.8-27.4Z"></path><path class="cls-5" d="M169.6,56.3l-2.7,15.1c-.3,1.6-1.1,3-2.5,4.2-1.4,1.2-2.9,1.8-4.5,1.8h-2.6l5.9,10.8h-9.5c0,0-6.1-10.8-6.1-10.8h-6.9l-1.9,10.8h-7.8l5.6-31.8c.3-1.7,1.1-3.1,2.5-4.2,1.4-1.2,2.9-1.7,4.5-1.7h21.1c1.5,0,2.7.5,3.6,1.4.9.9,1.4,2.1,1.4,3.5s0,.7,0,1.1ZM161.9,55.5h-17.4l-2.9,16.5h17.4l2.9-16.5Z"></path><path class="cls-5" d="M207.5,50.3l-.9,5.2h-25.2l-1.9,10.8h23.2l-.9,5.2h-23.2l-2.1,11.5h25.2l-.9,5.2h-27.1c-1.5,0-2.7-.5-3.6-1.4-.9-.9-1.4-2.1-1.4-3.5s0-.7,0-1.1l4.6-25.9c.3-1.7,1.1-3.1,2.5-4.2,1.4-1.2,2.9-1.7,4.5-1.7h27.1Z"></path><path class="cls-5" d="M242.9,58.1l-3.9,22.3c-.3,1.6-1,3.1-2,4.5-1.7,2.2-4.1,3.2-7.1,3.2h-25.2l6.6-37.8h25.2c2.4,0,4.2.8,5.3,2.3.8,1.1,1.2,2.5,1.2,4.2s0,.9-.1,1.2ZM235.5,55.5h-17.3l-4.9,27.4h17.3l4.8-27.4Z"></path><path class="cls-5" d="M281,50.3l-.9,5.2h-25.2l-1.9,10.8h23.2l-.9,5.2h-23.2l-2.1,11.5h25.2l-.9,5.2h-27.1c-1.5,0-2.7-.5-3.6-1.4-.9-.9-1.4-2.1-1.4-3.5s0-.7,0-1.1l4.6-25.9c.3-1.7,1.1-3.1,2.5-4.2,1.4-1.2,2.9-1.7,4.5-1.7h27.1Z"></path><polygon class="cls-3" points="54.6 57.8 48.4 87.9 56.8 87.9 62.4 57.8 54.6 57.8"></polygon><polygon class="cls-3" points="42.2 65.3 37.6 87.9 45.9 87.9 50.1 65.5 42.2 65.3"></polygon><polygon class="cls-3" points="29.5 73.5 26.6 87.9 34.9 87.9 37.6 73.7 29.5 73.5"></polygon><polygon class="cls-3" points="17.7 79.7 16 87.9 24.4 87.9 25.8 80.1 17.7 79.7"></polygon><path class="cls-2" d="M20.9,76.8l-3-1.5c1.8-3.7,4.8-6.6,8.4-8.3-.2-.5-.3-1.1-.4-1.6-.9-4.7,0-9.4,2.6-13.4,2.6-4,6.7-6.7,11.3-7.6,2.5-.5,5.1-.5,7.6.1,1.9-8.7,8.7-15.6,17.6-17.4,11.6-2.3,22.9,4.6,26.2,15.8,1.1-.4,2.2-.8,3.4-1,5.7-1.2,11.7.5,16.1,4.4l-2.2,2.5c-3.6-3.2-8.4-4.6-13.2-3.6-1.5.3-3,.9-4.4,1.6l-1.9,1.1-.5-2.1c0,0,0-.1,0-.2h0c-2.1-10.5-12.3-17.2-22.7-15.1-8.1,1.6-14.2,8.3-15.3,16.4l-.3,2.1-2-.7c-2.5-.9-5.1-1.1-7.7-.5-3.8.8-7.1,3-9.2,6.2-2.1,3.2-2.9,7.1-2.1,10.9.2.9.4,1.7.8,2.6l.6,1.6-1.6.6c-3.6,1.3-6.4,3.9-8.1,7.3Z"></path></svg>